<svg width="24" height="24" viewBox="0 0 24 24" fill="none" xmlns="http://www.w3.org/2000/svg">
<path d="M21.3333 0H2.66667C1.196 0 0 1.196 0 2.66667V21.3333C0 22.804 1.196 24 2.66667 24H21.3333C22.804 24 24 22.804 24 21.3333V2.66667C24 1.196 22.804 0 21.3333 0ZM8 10.6667V2.66667H16V10.6667H8ZM16 13.3333V21.3333H8V13.3333H16ZM2.66667 2.66667H5.33333V5.33333H2.66667V2.66667ZM2.66667 8H5.33333V10.6667H2.66667V8ZM2.66667 13.3333H5.33333V16H2.66667V13.3333ZM2.66667 18.6667H5.33333V21.3333H2.66667V18.6667ZM21.336 21.3333H18.6667V18.6667H21.336V21.3333ZM21.3347 16H18.6667V13.3333H21.3347V16ZM21.3347 10.6667H18.6667V8H21.3347V10.6667ZM18.6667 5.33333V2.66667H21.3333V5.33333H18.6667Z" fill="white"/>
</svg>
