<svg width="24" height="24" viewBox="0 0 24 24" fill="none" xmlns="http://www.w3.org/2000/svg">
<path d="M19.2 10.6667C19.2 9.388 18.384 8.31867 17.3028 8.06133C17.7348 7.26 18 6.33333 18 5.33333C18 2.392 15.8472 0 13.2 0C11.3796 0 9.8148 1.14267 9 2.80533C8.1852 1.14267 6.6204 0 4.8 0C2.1528 0 0 2.392 0 5.33333C0 6.536 0.3744 7.636 0.9804 8.528C0.677506 8.7741 0.430948 9.0959 0.26064 9.46742C0.0903325 9.83893 0.00104875 10.2497 0 10.6667V21.3333C0 22.804 1.0764 24 2.4 24H16.8C18.1236 24 19.2 22.804 19.2 21.3333V17.816L24 20.4827V11.1493L19.2 13.816V10.6667ZM13.2 2.66667C14.5236 2.66667 15.6 3.86267 15.6 5.33333C15.6 6.804 14.5236 8 13.2 8C11.8764 8 10.8 6.804 10.8 5.33333C10.8 3.86267 11.8764 2.66667 13.2 2.66667ZM4.8 2.66667C6.1236 2.66667 7.2 3.86267 7.2 5.33333C7.2 6.804 6.1236 8 4.8 8C3.4764 8 2.4 6.804 2.4 5.33333C2.4 3.86267 3.4764 2.66667 4.8 2.66667ZM2.4 21.3333V10.6667H16.8L16.8024 21.3333H2.4Z" fill="white"/>
</svg>
