<svg width="54" height="54" viewBox="0 0 32 32" fill="none" xmlns="http://www.w3.org/2000/svg">
<path d="M25.3333 4H6.66667C5.196 4 4 5.196 4 6.66667V25.3333C4 26.804 5.196 28 6.66667 28H25.3333C26.804 28 28 26.804 28 25.3333V6.66667C28 5.196 26.804 4 25.3333 4ZM12 14.6667V6.66667H20V14.6667H12ZM20 17.3333V25.3333H12V17.3333H20ZM6.66667 6.66667H9.33333V9.33333H6.66667V6.66667ZM6.66667 12H9.33333V14.6667H6.66667V12ZM6.66667 17.3333H9.33333V20H6.66667V17.3333ZM6.66667 22.6667H9.33333V25.3333H6.66667V22.6667ZM25.336 25.3333H22.6667V22.6667H25.336V25.3333ZM25.3347 20H22.6667V17.3333H25.3347V20ZM25.3347 14.6667H22.6667V12H25.3347V14.6667ZM22.6667 9.33333V6.66667H25.3333V9.33333H22.6667Z" fill="hsl(267, 72%, 59%)"/>
</svg>
